<svg width="105" height="36" viewBox="0 0 105 36" fill="none" xmlns="http://www.w3.org/2000/svg">
<g clip-path="url(#clip0_103_2)">
<path d="M12.7489 6L28.4781 21.3218V29.5472H21.1378V24.2787L9.71347 13.1502H7.34028V29.5472H0V6H12.7489ZM21.1378 14.1717V6H28.4781V14.1717H21.1378Z" fill="white"/>
<path d="M43.3 23L41.11 19.025H40.495V23H37.93V12.47H42.235C43.065 12.47 43.77 12.615 44.35 12.905C44.94 13.195 45.38 13.595 45.67 14.105C45.96 14.605 46.105 15.165 46.105 15.785C46.105 16.485 45.905 17.11 45.505 17.66C45.115 18.21 44.535 18.6 43.765 18.83L46.195 23H43.3ZM40.495 17.21H42.085C42.555 17.21 42.905 17.095 43.135 16.865C43.375 16.635 43.495 16.31 43.495 15.89C43.495 15.49 43.375 15.175 43.135 14.945C42.905 14.715 42.555 14.6 42.085 14.6H40.495V17.21ZM51.7802 14.525V16.655H55.2152V18.635H51.7802V20.945H55.6652V23H49.2152V12.47H55.6652V14.525H51.7802ZM67.8604 12.47L64.2154 19.52V23H61.6504V19.52L58.0054 12.47H60.9154L62.9554 16.88L64.9804 12.47H67.8604ZM79.5139 12.47V23H76.9489V18.665H72.9589V23H70.3939V12.47H72.9589V16.595H76.9489V12.47H79.5139ZM89.4205 21.14H85.4905L84.8605 23H82.1755L85.9855 12.47H88.9555L92.7655 23H90.0505L89.4205 21.14ZM88.7605 19.16L87.4555 15.305L86.1655 19.16H88.7605ZM104.845 23H102.28L97.9901 16.505V23H95.4251V12.47H97.9901L102.28 18.995V12.47H104.845V23Z" fill="white"/>
</g>
<defs>
<clipPath id="clip0_103_2">
<rect width="105" height="36" fill="white"/>
</clipPath>
</defs>
</svg>
